# Blender 4.0.2
# www.blender.org
mtllib crystal.mtl
o Cylinder
v 0.188479 -0.027365 -0.252507
v 0.184516 0.474324 -0.364617
v 0.345970 -0.028365 -0.161430
v 0.495218 0.472351 -0.184937
v 0.345912 -0.037312 0.020282
v 0.495105 0.454700 0.173550
v 0.188363 -0.045259 0.110917
v 0.184288 0.439022 0.352358
v 0.030872 -0.044259 0.019840
v -0.126415 0.440995 0.172678
v 0.030930 -0.035312 -0.161872
v -0.126301 0.458646 -0.185809
v 0.436683 0.933636 -0.124337
v 0.194566 0.935174 -0.264354
v 0.436595 0.919881 0.155017
v 0.194389 0.907664 0.294354
v -0.047728 0.909202 0.154337
v -0.047639 0.922956 -0.125017
v 0.164274 1.409006 -0.004155
v 0.156463 1.409055 -0.008672
v 0.164271 1.408562 0.004857
v 0.156457 1.408168 0.009352
v 0.148646 1.408218 0.004835
v 0.148649 1.408661 -0.004177
vn 0.4910 -0.1863 -0.8510
vn 0.9581 -0.2862 -0.0138
vn 0.4739 -0.3897 0.7896
vn -0.4609 -0.3991 0.7927
vn 0.9921 0.1250 0.0065
vn -0.9526 -0.3039 -0.0153
vn -0.4817 -0.1947 -0.8544
vn 0.0221 -0.9985 -0.0492
vn 0.4214 0.4727 0.7740
vn -0.9861 0.1660 0.0079
vn 0.4938 0.1746 -0.8519
vn 0.4927 0.0964 0.8649
vn -0.4965 0.1949 -0.8459
vn -0.4966 0.1172 0.8600
vn -0.0221 0.9985 0.0492
vn 0.4487 0.4520 -0.7709
vn -0.4742 0.3882 -0.7902
vn -0.4535 0.4148 0.7888
vn 0.8700 0.4924 0.0245
vn -0.9285 0.3708 0.0180
vt 0.621335 0.816743
vt 0.495406 0.628913
vt 0.563876 0.561845
vt 0.656041 0.782747
vt 0.691563 0.397757
vt 0.720764 0.699573
vt 0.750781 0.300737
vt 0.750781 0.650395
vt 0.149901 0.652754
vt 0.149901 0.302604
vt 0.208761 0.400812
vt 0.179736 0.702535
vt 0.503994 0.307079
vt 0.603496 0.179212
vt 0.336520 0.564669
vt 0.244495 0.785592
vt 0.405418 0.630318
vt 0.279419 0.818868
vt 0.850099 0.186696
vt 0.800440 0.291499
vt 0.750780 0.250552
vt 0.750780 0.104803
vt 0.800440 -0.000000
vt 0.850099 0.040947
vt 0.844420 0.291499
vt 0.844420 0.515566
vt 0.755706 0.346634
vt 0.755706 0.339405
vt 0.297393 0.179968
vt 0.396950 0.307655
vt 0.450639 0.359342
vt 0.649641 0.103609
vt 0.450639 0.358812
vt 0.251526 0.103438
vt 0.753243 0.348664
vt 0.750780 0.343467
vt 0.750780 0.336238
vt 0.753243 0.334207
vt 0.456771 0.005811
vt 0.458492 0.004125
vt 0.441713 0.006588
vt 0.443445 0.008239
vt 0.437022 -0.000000
vt 0.438501 0.002469
vt 0.461702 -0.000000
s 0
usemtl Crystal
f 1/1/1 2/2/1 4/3/1 3/4/1
f 3/4/2 4/3/2 6/5/2 5/6/2
f 5/6/3 6/5/3 8/7/3 7/8/3
f 7/9/4 8/10/4 10/11/4 9/12/4
f 6/5/5 4/3/5 13/13/5 15/14/5
f 9/12/6 10/11/6 12/15/6 11/16/6
f 11/16/7 12/15/7 2/17/7 1/18/7
f 1/19/8 3/20/8 5/21/8 7/22/8 9/23/8 11/24/8
f 16/25/9 15/26/9 21/27/9 22/28/9
f 12/15/10 10/11/10 17/29/10 18/30/10
f 4/3/11 2/2/11 14/31/11 13/13/11
f 8/7/12 6/5/12 15/14/12 16/32/12
f 2/17/13 12/15/13 18/30/13 14/33/13
f 10/11/14 8/10/14 16/34/14 17/29/14
f 19/35/15 20/36/15 24/37/15 23/38/15 22/28/15 21/27/15
f 13/13/16 14/31/16 20/39/16 19/40/16
f 14/33/17 18/30/17 24/41/17 20/42/17
f 17/29/18 16/34/18 22/43/18 23/44/18
f 15/14/19 13/13/19 19/40/19 21/45/19
f 18/30/20 17/29/20 23/44/20 24/41/20
o Cylinder.001
v 0.104689 -0.002827 -0.352598
v 0.037403 0.212570 -0.420204
v 0.146912 -0.022399 -0.421769
v 0.120702 0.173958 -0.556665
v 0.230261 -0.020561 -0.421652
v 0.285134 0.177584 -0.556434
v 0.271386 0.000848 -0.352365
v 0.366267 0.219821 -0.419742
v 0.229163 0.020420 -0.283194
v 0.282968 0.258433 -0.283281
v 0.145814 0.018582 -0.283311
v 0.118536 0.254807 -0.283512
v 0.133460 0.384834 -0.595913
v 0.068549 0.414922 -0.489575
v 0.261595 0.387659 -0.595733
v 0.324819 0.420573 -0.489215
v 0.259907 0.450662 -0.382877
v 0.131772 0.447836 -0.383057
v 0.172246 0.633601 -0.544172
v 0.170151 0.634572 -0.540742
v 0.176379 0.633693 -0.544166
v 0.178419 0.634754 -0.540730
v 0.176325 0.635725 -0.537299
v 0.172191 0.635634 -0.537305
vn -0.8321 -0.3852 -0.3990
vn 0.0136 -0.5650 -0.8250
vn 0.8185 -0.4604 -0.3436
vn 0.8149 -0.1840 0.5495
vn 0.0054 -0.1833 -0.9830
vn -0.0014 0.0007 1.0000
vn -0.8425 -0.0968 0.5300
vn 0.0207 -0.9586 0.2839
vn 0.7424 0.3737 -0.5561
vn -0.0114 0.4589 0.8884
vn -0.8581 -0.0433 -0.5116
vn 0.8598 0.0008 -0.5106
vn -0.8612 0.2783 0.4252
vn 0.8459 0.3218 0.4253
vn -0.0207 0.9586 -0.2839
vn -0.7971 0.2396 -0.5543
vn -0.8190 0.4590 0.3443
vn 0.7545 0.5865 0.2946
vn -0.0031 0.2041 -0.9789
vn -0.0151 0.6366 0.7711
vt 0.621335 0.816743
vt 0.495406 0.628913
vt 0.563876 0.561845
vt 0.656041 0.782747
vt 0.691563 0.397757
vt 0.720764 0.699573
vt 0.750781 0.300737
vt 0.750781 0.650395
vt 0.149901 0.652754
vt 0.149901 0.302604
vt 0.208761 0.400812
vt 0.179736 0.702535
vt 0.503994 0.307079
vt 0.603496 0.179212
vt 0.336520 0.564669
vt 0.244495 0.785592
vt 0.405418 0.630318
vt 0.279419 0.818868
vt 0.850099 0.186696
vt 0.800440 0.291499
vt 0.750780 0.250552
vt 0.750780 0.104803
vt 0.800440 -0.000000
vt 0.850099 0.040947
vt 0.844420 0.291499
vt 0.844420 0.515566
vt 0.755706 0.346634
vt 0.755706 0.339405
vt 0.297393 0.179968
vt 0.396950 0.307655
vt 0.450639 0.359342
vt 0.649641 0.103609
vt 0.450639 0.358812
vt 0.251526 0.103438
vt 0.753243 0.348664
vt 0.750780 0.343467
vt 0.750780 0.336238
vt 0.753243 0.334207
vt 0.456771 0.005811
vt 0.458492 0.004125
vt 0.441713 0.006588
vt 0.443445 0.008239
vt 0.437022 -0.000000
vt 0.438501 0.002469
vt 0.461702 -0.000000
s 0
usemtl Crystal
f 25/46/21 26/47/21 28/48/21 27/49/21
f 27/49/22 28/48/22 30/50/22 29/51/22
f 29/51/23 30/50/23 32/52/23 31/53/23
f 31/54/24 32/55/24 34/56/24 33/57/24
f 30/50/25 28/48/25 37/58/25 39/59/25
f 33/57/26 34/56/26 36/60/26 35/61/26
f 35/61/27 36/60/27 26/62/27 25/63/27
f 25/64/28 27/65/28 29/66/28 31/67/28 33/68/28 35/69/28
f 40/70/29 39/71/29 45/72/29 46/73/29
f 36/60/30 34/56/30 41/74/30 42/75/30
f 28/48/31 26/47/31 38/76/31 37/58/31
f 32/52/32 30/50/32 39/59/32 40/77/32
f 26/62/33 36/60/33 42/75/33 38/78/33
f 34/56/34 32/55/34 40/79/34 41/74/34
f 43/80/35 44/81/35 48/82/35 47/83/35 46/73/35 45/72/35
f 37/58/36 38/76/36 44/84/36 43/85/36
f 38/78/37 42/75/37 48/86/37 44/87/37
f 41/74/38 40/79/38 46/88/38 47/89/38
f 39/59/39 37/58/39 43/85/39 45/90/39
f 42/75/40 41/74/40 47/89/40 48/86/40
o Cylinder.002
v 0.262420 -0.016601 0.115572
v 0.296650 0.258784 0.191000
v 0.324040 -0.014961 0.034591
v 0.418215 0.262019 0.031239
v 0.416838 -0.056339 0.040414
v 0.601290 0.180387 0.042726
v 0.448016 -0.099357 0.127218
v 0.662799 0.095520 0.213976
v 0.386397 -0.100997 0.208199
v 0.541234 0.092285 0.373737
v 0.293599 -0.059619 0.202375
v 0.358159 0.173917 0.362249
v 0.529734 0.474841 0.136483
v 0.435004 0.472320 0.260978
v 0.672396 0.411229 0.145435
v 0.720328 0.345095 0.278882
v 0.625598 0.342574 0.403377
v 0.482936 0.406187 0.394425
v 0.655196 0.654688 0.360911
v 0.652140 0.654607 0.364928
v 0.659799 0.652636 0.361200
v 0.661345 0.650502 0.365505
v 0.658289 0.650421 0.369522
v 0.653687 0.652473 0.369233
vn -0.7719 0.2554 -0.5822
vn 0.0497 -0.0290 -0.9983
vn 0.6826 -0.5269 -0.5063
vn 0.5289 -0.7553 0.3871
vn 0.2102 0.3426 -0.9156
vn -0.2711 -0.4916 0.8276
vn -0.9375 0.0214 0.3473
vn -0.3725 -0.8778 -0.3012
vn 0.9448 0.2444 -0.2183
vn -0.0996 -0.0838 0.9915
vn -0.6528 0.5819 -0.4850
vn 0.9165 -0.1113 -0.3843
vn -0.8031 0.3663 0.4700
vn 0.7565 -0.3224 0.5691
vn 0.3725 0.8778 0.3012
vn -0.4932 0.7923 -0.3592
vn -0.6837 0.5258 0.5061
vn 0.7959 -0.0180 0.6052
vn 0.3285 0.6389 -0.6956
vn -0.0130 0.1107 0.9938
vt 0.621335 0.816743
vt 0.495406 0.628913
vt 0.563876 0.561845
vt 0.656041 0.782747
vt 0.691563 0.397757
vt 0.720764 0.699573
vt 0.750781 0.300737
vt 0.750781 0.650395
vt 0.149901 0.652754
vt 0.149901 0.302604
vt 0.208761 0.400812
vt 0.179736 0.702535
vt 0.503994 0.307079
vt 0.603496 0.179212
vt 0.336520 0.564669
vt 0.244495 0.785592
vt 0.405418 0.630318
vt 0.279419 0.818868
vt 0.850099 0.186696
vt 0.800440 0.291499
vt 0.750780 0.250552
vt 0.750780 0.104803
vt 0.800440 -0.000000
vt 0.850099 0.040947
vt 0.844420 0.291499
vt 0.844420 0.515566
vt 0.755706 0.346634
vt 0.755706 0.339405
vt 0.297393 0.179968
vt 0.396950 0.307655
vt 0.450639 0.359342
vt 0.649641 0.103609
vt 0.450639 0.358812
vt 0.251526 0.103438
vt 0.753243 0.348664
vt 0.750780 0.343467
vt 0.750780 0.336238
vt 0.753243 0.334207
vt 0.456771 0.005811
vt 0.458492 0.004125
vt 0.441713 0.006588
vt 0.443445 0.008239
vt 0.437022 -0.000000
vt 0.438501 0.002469
vt 0.461702 -0.000000
s 0
usemtl Crystal
f 49/91/41 50/92/41 52/93/41 51/94/41
f 51/94/42 52/93/42 54/95/42 53/96/42
f 53/96/43 54/95/43 56/97/43 55/98/43
f 55/99/44 56/100/44 58/101/44 57/102/44
f 54/95/45 52/93/45 61/103/45 63/104/45
f 57/102/46 58/101/46 60/105/46 59/106/46
f 59/106/47 60/105/47 50/107/47 49/108/47
f 49/109/48 51/110/48 53/111/48 55/112/48 57/113/48 59/114/48
f 64/115/49 63/116/49 69/117/49 70/118/49
f 60/105/50 58/101/50 65/119/50 66/120/50
f 52/93/51 50/92/51 62/121/51 61/103/51
f 56/97/52 54/95/52 63/104/52 64/122/52
f 50/107/53 60/105/53 66/120/53 62/123/53
f 58/101/54 56/100/54 64/124/54 65/119/54
f 67/125/55 68/126/55 72/127/55 71/128/55 70/118/55 69/117/55
f 61/103/56 62/121/56 68/129/56 67/130/56
f 62/123/57 66/120/57 72/131/57 68/132/57
f 65/119/58 64/124/58 70/133/58 71/134/58
f 63/104/59 61/103/59 67/130/59 69/135/59
f 66/120/60 65/119/60 71/134/60 72/131/60
