# Blender 4.0.2
# www.blender.org
mtllib crystal.mtl
o Cylinder
v 0.188479 -0.027365 -0.252507
v 0.184516 0.474324 -0.364617
v 0.345970 -0.028365 -0.161430
v 0.495218 0.472351 -0.184937
v 0.345912 -0.037312 0.020282
v 0.495105 0.454700 0.173550
v 0.188363 -0.045259 0.110917
v 0.184288 0.439022 0.352358
v 0.030872 -0.044259 0.019840
v -0.126415 0.440995 0.172678
v 0.030930 -0.035312 -0.161872
v -0.126301 0.458646 -0.185809
v 0.436683 0.933636 -0.124337
v 0.194566 0.935174 -0.264354
v 0.436595 0.919881 0.155017
v 0.194389 0.907664 0.294354
v -0.047728 0.909202 0.154337
v -0.047639 0.922956 -0.125017
v 0.164274 1.409006 -0.004155
v 0.156463 1.409055 -0.008672
v 0.164271 1.408562 0.004857
v 0.156457 1.408168 0.009352
v 0.148646 1.408218 0.004835
v 0.148649 1.408661 -0.004177
vn 0.4910 -0.1863 -0.8510
vn 0.9581 -0.2862 -0.0138
vn 0.4739 -0.3897 0.7896
vn -0.4609 -0.3991 0.7927
vn 0.9921 0.1250 0.0065
vn -0.9526 -0.3039 -0.0153
vn -0.4817 -0.1947 -0.8544
vn 0.0221 -0.9985 -0.0492
vn 0.4214 0.4727 0.7740
vn -0.9861 0.1660 0.0079
vn 0.4938 0.1746 -0.8519
vn 0.4927 0.0964 0.8649
vn -0.4965 0.1949 -0.8459
vn -0.4966 0.1172 0.8600
vn -0.0221 0.9985 0.0492
vn 0.4487 0.4520 -0.7709
vn -0.4742 0.3882 -0.7902
vn -0.4535 0.4148 0.7888
vn 0.8700 0.4924 0.0245
vn -0.9285 0.3708 0.0180
vt 1.000000 0.500000
vt 1.000000 1.000000
vt 0.833333 1.000000
vt 0.833333 0.500000
vt 0.666667 1.000000
vt 0.666667 0.500000
vt 0.500000 1.000000
vt 0.500000 0.500000
vt 0.333333 1.000000
vt 0.333333 0.500000
vt 0.166667 1.000000
vt 0.166667 0.500000
vt -0.000000 1.000000
vt -0.000000 0.500000
vt 0.750000 0.490000
vt 0.957846 0.370000
vt 0.957846 0.130000
vt 0.750000 0.010000
vt 0.542154 0.130000
vt 0.542154 0.370000
vt 0.457846 0.370000
vt 0.250000 0.490000
vt 0.042154 0.370000
vt 0.042154 0.130000
vt 0.250000 0.010000
vt 0.457846 0.130000
s 0
usemtl Crystal
f 1/1/1 2/2/1 4/3/1 3/4/1
f 3/4/2 4/3/2 6/5/2 5/6/2
f 5/6/3 6/5/3 8/7/3 7/8/3
f 7/8/4 8/7/4 10/9/4 9/10/4
f 6/5/5 4/3/5 13/3/5 15/5/5
f 9/10/6 10/9/6 12/11/6 11/12/6
f 11/12/7 12/11/7 2/13/7 1/14/7
f 1/15/8 3/16/8 5/17/8 7/18/8 9/19/8 11/20/8
f 16/7/9 15/5/9 21/5/9 22/7/9
f 12/11/10 10/9/10 17/9/10 18/11/10
f 4/3/11 2/2/11 14/2/11 13/3/11
f 8/7/12 6/5/12 15/5/12 16/7/12
f 2/13/13 12/11/13 18/11/13 14/13/13
f 10/9/14 8/7/14 16/7/14 17/9/14
f 19/21/15 20/22/15 24/23/15 23/24/15 22/25/15 21/26/15
f 13/3/16 14/2/16 20/2/16 19/3/16
f 14/13/17 18/11/17 24/11/17 20/13/17
f 17/9/18 16/7/18 22/7/18 23/9/18
f 15/5/19 13/3/19 19/3/19 21/5/19
f 18/11/20 17/9/20 23/9/20 24/11/20
o Cylinder.001
v 0.104689 -0.002827 -0.352598
v 0.037403 0.212570 -0.420204
v 0.146912 -0.022399 -0.421769
v 0.120702 0.173958 -0.556665
v 0.230261 -0.020561 -0.421652
v 0.285134 0.177584 -0.556434
v 0.271386 0.000848 -0.352365
v 0.366267 0.219821 -0.419742
v 0.229163 0.020420 -0.283194
v 0.282968 0.258433 -0.283281
v 0.145814 0.018582 -0.283311
v 0.118536 0.254807 -0.283512
v 0.133460 0.384834 -0.595913
v 0.068549 0.414922 -0.489575
v 0.261595 0.387659 -0.595733
v 0.324819 0.420573 -0.489215
v 0.259907 0.450662 -0.382877
v 0.131772 0.447836 -0.383057
v 0.172246 0.633601 -0.544172
v 0.170151 0.634572 -0.540742
v 0.176379 0.633693 -0.544166
v 0.178419 0.634754 -0.540730
v 0.176325 0.635725 -0.537299
v 0.172191 0.635634 -0.537305
vn -0.8321 -0.3852 -0.3990
vn 0.0136 -0.5650 -0.8250
vn 0.8185 -0.4604 -0.3436
vn 0.8149 -0.1840 0.5495
vn 0.0054 -0.1833 -0.9830
vn -0.0014 0.0007 1.0000
vn -0.8425 -0.0968 0.5300
vn 0.0207 -0.9586 0.2839
vn 0.7424 0.3737 -0.5561
vn -0.0114 0.4589 0.8884
vn -0.8581 -0.0433 -0.5116
vn 0.8598 0.0008 -0.5106
vn -0.8612 0.2783 0.4252
vn 0.8459 0.3218 0.4253
vn -0.0207 0.9586 -0.2839
vn -0.7971 0.2396 -0.5543
vn -0.8190 0.4590 0.3443
vn 0.7545 0.5865 0.2946
vn -0.0031 0.2041 -0.9789
vn -0.0151 0.6366 0.7711
vt 1.000000 0.500000
vt 1.000000 1.000000
vt 0.833333 1.000000
vt 0.833333 0.500000
vt 0.666667 1.000000
vt 0.666667 0.500000
vt 0.500000 1.000000
vt 0.500000 0.500000
vt 0.333333 1.000000
vt 0.333333 0.500000
vt 0.166667 1.000000
vt 0.166667 0.500000
vt -0.000000 1.000000
vt -0.000000 0.500000
vt 0.750000 0.490000
vt 0.957846 0.370000
vt 0.957846 0.130000
vt 0.750000 0.010000
vt 0.542154 0.130000
vt 0.542154 0.370000
vt 0.457846 0.370000
vt 0.250000 0.490000
vt 0.042154 0.370000
vt 0.042154 0.130000
vt 0.250000 0.010000
vt 0.457846 0.130000
s 0
usemtl Crystal
f 25/27/21 26/28/21 28/29/21 27/30/21
f 27/30/22 28/29/22 30/31/22 29/32/22
f 29/32/23 30/31/23 32/33/23 31/34/23
f 31/34/24 32/33/24 34/35/24 33/36/24
f 30/31/25 28/29/25 37/29/25 39/31/25
f 33/36/26 34/35/26 36/37/26 35/38/26
f 35/38/27 36/37/27 26/39/27 25/40/27
f 25/41/28 27/42/28 29/43/28 31/44/28 33/45/28 35/46/28
f 40/33/29 39/31/29 45/31/29 46/33/29
f 36/37/30 34/35/30 41/35/30 42/37/30
f 28/29/31 26/28/31 38/28/31 37/29/31
f 32/33/32 30/31/32 39/31/32 40/33/32
f 26/39/33 36/37/33 42/37/33 38/39/33
f 34/35/34 32/33/34 40/33/34 41/35/34
f 43/47/35 44/48/35 48/49/35 47/50/35 46/51/35 45/52/35
f 37/29/36 38/28/36 44/28/36 43/29/36
f 38/39/37 42/37/37 48/37/37 44/39/37
f 41/35/38 40/33/38 46/33/38 47/35/38
f 39/31/39 37/29/39 43/29/39 45/31/39
f 42/37/40 41/35/40 47/35/40 48/37/40
o Cylinder.002
v 0.262420 -0.016601 0.115572
v 0.296650 0.258784 0.191000
v 0.324040 -0.014961 0.034591
v 0.418215 0.262019 0.031239
v 0.416838 -0.056339 0.040414
v 0.601290 0.180387 0.042726
v 0.448016 -0.099357 0.127218
v 0.662799 0.095520 0.213976
v 0.386397 -0.100997 0.208199
v 0.541234 0.092285 0.373737
v 0.293599 -0.059619 0.202375
v 0.358159 0.173917 0.362249
v 0.529734 0.474841 0.136483
v 0.435004 0.472320 0.260978
v 0.672396 0.411229 0.145435
v 0.720328 0.345095 0.278882
v 0.625598 0.342574 0.403377
v 0.482936 0.406187 0.394425
v 0.655196 0.654688 0.360911
v 0.652140 0.654607 0.364928
v 0.659799 0.652636 0.361200
v 0.661345 0.650502 0.365505
v 0.658289 0.650421 0.369522
v 0.653687 0.652473 0.369233
vn -0.7719 0.2554 -0.5822
vn 0.0497 -0.0290 -0.9983
vn 0.6826 -0.5269 -0.5063
vn 0.5289 -0.7553 0.3871
vn 0.2102 0.3426 -0.9156
vn -0.2711 -0.4916 0.8276
vn -0.9375 0.0214 0.3473
vn -0.3725 -0.8778 -0.3012
vn 0.9448 0.2444 -0.2183
vn -0.0996 -0.0838 0.9915
vn -0.6528 0.5819 -0.4850
vn 0.9165 -0.1113 -0.3843
vn -0.8031 0.3663 0.4700
vn 0.7565 -0.3224 0.5691
vn 0.3725 0.8778 0.3012
vn -0.4932 0.7923 -0.3592
vn -0.6837 0.5258 0.5061
vn 0.7959 -0.0180 0.6052
vn 0.3285 0.6389 -0.6956
vn -0.0130 0.1107 0.9938
vt 1.000000 0.500000
vt 1.000000 1.000000
vt 0.833333 1.000000
vt 0.833333 0.500000
vt 0.666667 1.000000
vt 0.666667 0.500000
vt 0.500000 1.000000
vt 0.500000 0.500000
vt 0.333333 1.000000
vt 0.333333 0.500000
vt 0.166667 1.000000
vt 0.166667 0.500000
vt -0.000000 1.000000
vt -0.000000 0.500000
vt 0.750000 0.490000
vt 0.957846 0.370000
vt 0.957846 0.130000
vt 0.750000 0.010000
vt 0.542154 0.130000
vt 0.542154 0.370000
vt 0.457846 0.370000
vt 0.250000 0.490000
vt 0.042154 0.370000
vt 0.042154 0.130000
vt 0.250000 0.010000
vt 0.457846 0.130000
s 0
usemtl Crystal
f 49/53/41 50/54/41 52/55/41 51/56/41
f 51/56/42 52/55/42 54/57/42 53/58/42
f 53/58/43 54/57/43 56/59/43 55/60/43
f 55/60/44 56/59/44 58/61/44 57/62/44
f 54/57/45 52/55/45 61/55/45 63/57/45
f 57/62/46 58/61/46 60/63/46 59/64/46
f 59/64/47 60/63/47 50/65/47 49/66/47
f 49/67/48 51/68/48 53/69/48 55/70/48 57/71/48 59/72/48
f 64/59/49 63/57/49 69/57/49 70/59/49
f 60/63/50 58/61/50 65/61/50 66/63/50
f 52/55/51 50/54/51 62/54/51 61/55/51
f 56/59/52 54/57/52 63/57/52 64/59/52
f 50/65/53 60/63/53 66/63/53 62/65/53
f 58/61/54 56/59/54 64/59/54 65/61/54
f 67/73/55 68/74/55 72/75/55 71/76/55 70/77/55 69/78/55
f 61/55/56 62/54/56 68/54/56 67/55/56
f 62/65/57 66/63/57 72/63/57 68/65/57
f 65/61/58 64/59/58 70/59/58 71/61/58
f 63/57/59 61/55/59 67/55/59 69/57/59
f 66/63/60 65/61/60 71/61/60 72/63/60
