# Blender 4.0.2
# www.blender.org
mtllib rail.mtl
o Cube.001
v -18.767103 -0.078615 -1.425500
v -18.767103 0.078615 -1.425500
v -18.767103 -0.078615 -1.582731
v -18.767103 0.078615 -1.582731
v 18.767103 -0.078615 -1.425500
v 18.767103 0.078615 -1.425500
v 18.767103 -0.078615 -1.582731
v 18.767103 0.078615 -1.582731
vn -1.0000 -0.0000 -0.0000
vn -0.0000 -0.0000 -1.0000
vn 1.0000 -0.0000 -0.0000
vn -0.0000 -0.0000 1.0000
vn -0.0000 -1.0000 -0.0000
vn -0.0000 1.0000 -0.0000
vt 0.375000 0.000000
vt 0.625000 0.000000
vt 0.625000 0.250000
vt 0.375000 0.250000
vt -6.581409 0.097707
vt -6.581409 0.164878
vt 7.581409 0.164878
vt 7.581391 0.097707
vt 0.375000 0.500000
vt 0.625000 0.500000
vt 0.625000 0.750000
vt 0.375000 0.750000
vt -8.334872 0.924777
vt -8.334872 0.825223
vt 9.334867 0.825223
vt 9.334867 0.924777
vt 0.125000 0.500000
vt 0.125000 0.750000
vt -7.210793 0.099520
vt 8.205216 0.099520
vt 8.205216 0.161429
vt -7.210793 0.161429
s 0
usemtl Material.001
f 1/1/1 2/2/1 4/3/1 3/4/1
f 3/5/2 4/6/2 8/7/2 7/8/2
f 7/9/3 8/10/3 6/11/3 5/12/3
f 5/13/4 6/14/4 2/15/4 1/16/4
f 3/17/5 7/9/5 5/12/5 1/18/5
f 8/19/6 4/20/6 2/21/6 6/22/6
o Cube.002
v -17.966536 -0.200375 1.828990
v -17.966536 -0.013643 1.828990
v -17.966536 -0.200375 -1.828990
v -17.966536 -0.013643 -1.828990
v -17.728579 -0.200375 1.828990
v -17.728579 -0.013643 1.828990
v -17.728579 -0.200375 -1.828990
v -17.728579 -0.013643 -1.828990
v -15.586955 -0.200375 1.828990
v -15.586955 -0.013643 1.828990
v -15.586955 -0.200375 -1.828990
v -15.586955 -0.013643 -1.828990
v -15.348997 -0.200375 1.828990
v -15.348997 -0.013643 1.828990
v -15.348997 -0.200375 -1.828990
v -15.348997 -0.013643 -1.828990
v -13.207375 -0.200375 1.828990
v -13.207375 -0.013643 1.828990
v -13.207375 -0.200375 -1.828990
v -13.207375 -0.013643 -1.828990
v -12.969417 -0.200375 1.828990
v -12.969417 -0.013643 1.828990
v -12.969417 -0.200375 -1.828990
v -12.969417 -0.013643 -1.828990
v -10.827794 -0.200375 1.828990
v -10.827794 -0.013643 1.828990
v -10.827794 -0.200375 -1.828990
v -10.827794 -0.013643 -1.828990
v -10.589836 -0.200375 1.828990
v -10.589836 -0.013643 1.828990
v -10.589836 -0.200375 -1.828990
v -10.589836 -0.013643 -1.828990
v -8.448214 -0.200375 1.828990
v -8.448214 -0.013643 1.828990
v -8.448214 -0.200375 -1.828990
v -8.448214 -0.013643 -1.828990
v -8.210255 -0.200375 1.828990
v -8.210255 -0.013643 1.828990
v -8.210255 -0.200375 -1.828990
v -8.210255 -0.013643 -1.828990
v -6.068632 -0.200375 1.828990
v -6.068632 -0.013643 1.828990
v -6.068632 -0.200375 -1.828990
v -6.068632 -0.013643 -1.828990
v -5.830674 -0.200375 1.828990
v -5.830674 -0.013643 1.828990
v -5.830674 -0.200375 -1.828990
v -5.830674 -0.013643 -1.828990
v -3.689052 -0.200375 1.828990
v -3.689052 -0.013643 1.828990
v -3.689052 -0.200375 -1.828990
v -3.689052 -0.013643 -1.828990
v -3.451094 -0.200375 1.828990
v -3.451094 -0.013643 1.828990
v -3.451094 -0.200375 -1.828990
v -3.451094 -0.013643 -1.828990
v -1.309471 -0.200375 1.828990
v -1.309471 -0.013643 1.828990
v -1.309471 -0.200375 -1.828990
v -1.309471 -0.013643 -1.828990
v -1.071512 -0.200375 1.828990
v -1.071512 -0.013643 1.828990
v -1.071512 -0.200375 -1.828990
v -1.071512 -0.013643 -1.828990
v 1.070110 -0.200375 1.828990
v 1.070110 -0.013643 1.828990
v 1.070110 -0.200375 -1.828990
v 1.070110 -0.013643 -1.828990
v 1.308067 -0.200375 1.828990
v 1.308067 -0.013643 1.828990
v 1.308067 -0.200375 -1.828990
v 1.308067 -0.013643 -1.828990
v 3.449690 -0.200375 1.828990
v 3.449690 -0.013643 1.828990
v 3.449690 -0.200375 -1.828990
v 3.449690 -0.013643 -1.828990
v 3.687649 -0.200375 1.828990
v 3.687649 -0.013643 1.828990
v 3.687649 -0.200375 -1.828990
v 3.687649 -0.013643 -1.828990
v 5.829271 -0.200375 1.828990
v 5.829271 -0.013643 1.828990
v 5.829271 -0.200375 -1.828990
v 5.829271 -0.013643 -1.828990
v 6.067230 -0.200375 1.828990
v 6.067230 -0.013643 1.828990
v 6.067230 -0.200375 -1.828990
v 6.067230 -0.013643 -1.828990
v 8.208853 -0.200375 1.828990
v 8.208853 -0.013643 1.828990
v 8.208853 -0.200375 -1.828990
v 8.208853 -0.013643 -1.828990
v 8.446810 -0.200375 1.828990
v 8.446810 -0.013643 1.828990
v 8.446810 -0.200375 -1.828990
v 8.446810 -0.013643 -1.828990
v 10.588432 -0.200375 1.828990
v 10.588432 -0.013643 1.828990
v 10.588432 -0.200375 -1.828990
v 10.588432 -0.013643 -1.828990
v 10.826391 -0.200375 1.828990
v 10.826391 -0.013643 1.828990
v 10.826391 -0.200375 -1.828990
v 10.826391 -0.013643 -1.828990
v 12.968014 -0.200375 1.828990
v 12.968014 -0.013643 1.828990
v 12.968014 -0.200375 -1.828990
v 12.968014 -0.013643 -1.828990
v 13.205971 -0.200375 1.828990
v 13.205971 -0.013643 1.828990
v 13.205971 -0.200375 -1.828990
v 13.205971 -0.013643 -1.828990
v 15.347595 -0.200375 1.828990
v 15.347595 -0.013643 1.828990
v 15.347595 -0.200375 -1.828990
v 15.347595 -0.013643 -1.828990
v 15.585552 -0.200375 1.828990
v 15.585552 -0.013643 1.828990
v 15.585552 -0.200375 -1.828990
v 15.585552 -0.013643 -1.828990
v 17.727177 -0.200375 1.828990
v 17.727177 -0.013643 1.828990
v 17.727177 -0.200375 -1.828990
v 17.727177 -0.013643 -1.828990
v 17.965134 -0.200375 1.828990
v 17.965134 -0.013643 1.828990
v 17.965134 -0.200375 -1.828990
v 17.965134 -0.013643 -1.828990
vn -1.0000 -0.0000 -0.0000
vn -0.0000 -0.0000 -1.0000
vn 1.0000 -0.0000 -0.0000
vn -0.0000 -0.0000 1.0000
vn -0.0000 -1.0000 -0.0000
vn -0.0000 1.0000 -0.0000
vt 0.357400 0.792647
vt 0.286945 0.792647
vt 0.286945 0.198478
vt 0.357400 0.198478
vt 0.519271 0.180906
vt 0.519271 0.397590
vt 0.372131 0.397590
vt 0.372131 0.180906
vt 0.350375 0.807147
vt 0.293969 0.807148
vt 0.293969 0.187129
vt 0.350375 0.187129
vt 0.472048 0.819094
vt 0.372131 0.819094
vt 0.372131 0.500000
vt 0.472048 0.500000
vt 0.666412 0.180906
vt 0.666412 0.397590
vt 0.519271 0.397590
vt 0.617305 0.814356
vt 0.568379 0.814356
vt 0.568378 0.197507
vt 0.617305 0.197507
s 0
usemtl Material.001
f 9/23/7 10/24/7 12/25/7 11/26/7
f 11/27/8 12/28/8 16/29/8 15/30/8
f 15/31/9 16/32/9 14/33/9 13/34/9
f 13/35/10 14/36/10 10/37/10 9/38/10
f 11/27/11 15/39/11 13/40/11 9/41/11
f 16/42/12 12/43/12 10/44/12 14/45/12
f 17/23/7 18/24/7 20/25/7 19/26/7
f 19/27/8 20/28/8 24/29/8 23/30/8
f 23/31/9 24/32/9 22/33/9 21/34/9
f 21/35/10 22/36/10 18/37/10 17/38/10
f 19/27/11 23/39/11 21/40/11 17/41/11
f 24/42/12 20/43/12 18/44/12 22/45/12
f 25/23/7 26/24/7 28/25/7 27/26/7
f 27/27/8 28/28/8 32/29/8 31/30/8
f 31/31/9 32/32/9 30/33/9 29/34/9
f 29/35/10 30/36/10 26/37/10 25/38/10
f 27/27/11 31/39/11 29/40/11 25/41/11
f 32/42/12 28/43/12 26/44/12 30/45/12
f 33/23/7 34/24/7 36/25/7 35/26/7
f 35/27/8 36/28/8 40/29/8 39/30/8
f 39/31/9 40/32/9 38/33/9 37/34/9
f 37/35/10 38/36/10 34/37/10 33/38/10
f 35/27/11 39/39/11 37/40/11 33/41/11
f 40/42/12 36/43/12 34/44/12 38/45/12
f 41/23/7 42/24/7 44/25/7 43/26/7
f 43/27/8 44/28/8 48/29/8 47/30/8
f 47/31/9 48/32/9 46/33/9 45/34/9
f 45/35/10 46/36/10 42/37/10 41/38/10
f 43/27/11 47/39/11 45/40/11 41/41/11
f 48/42/12 44/43/12 42/44/12 46/45/12
f 49/23/7 50/24/7 52/25/7 51/26/7
f 51/27/8 52/28/8 56/29/8 55/30/8
f 55/31/9 56/32/9 54/33/9 53/34/9
f 53/35/10 54/36/10 50/37/10 49/38/10
f 51/27/11 55/39/11 53/40/11 49/41/11
f 56/42/12 52/43/12 50/44/12 54/45/12
f 57/23/7 58/24/7 60/25/7 59/26/7
f 59/27/8 60/28/8 64/29/8 63/30/8
f 63/31/9 64/32/9 62/33/9 61/34/9
f 61/35/10 62/36/10 58/37/10 57/38/10
f 59/27/11 63/39/11 61/40/11 57/41/11
f 64/42/12 60/43/12 58/44/12 62/45/12
f 65/23/7 66/24/7 68/25/7 67/26/7
f 67/27/8 68/28/8 72/29/8 71/30/8
f 71/31/9 72/32/9 70/33/9 69/34/9
f 69/35/10 70/36/10 66/37/10 65/38/10
f 67/27/11 71/39/11 69/40/11 65/41/11
f 72/42/12 68/43/12 66/44/12 70/45/12
f 73/23/7 74/24/7 76/25/7 75/26/7
f 75/27/8 76/28/8 80/29/8 79/30/8
f 79/31/9 80/32/9 78/33/9 77/34/9
f 77/35/10 78/36/10 74/37/10 73/38/10
f 75/27/11 79/39/11 77/40/11 73/41/11
f 80/42/12 76/43/12 74/44/12 78/45/12
f 81/23/7 82/24/7 84/25/7 83/26/7
f 83/27/8 84/28/8 88/29/8 87/30/8
f 87/31/9 88/32/9 86/33/9 85/34/9
f 85/35/10 86/36/10 82/37/10 81/38/10
f 83/27/11 87/39/11 85/40/11 81/41/11
f 88/42/12 84/43/12 82/44/12 86/45/12
f 89/23/7 90/24/7 92/25/7 91/26/7
f 91/27/8 92/28/8 96/29/8 95/30/8
f 95/31/9 96/32/9 94/33/9 93/34/9
f 93/35/10 94/36/10 90/37/10 89/38/10
f 91/27/11 95/39/11 93/40/11 89/41/11
f 96/42/12 92/43/12 90/44/12 94/45/12
f 97/23/7 98/24/7 100/25/7 99/26/7
f 99/27/8 100/28/8 104/29/8 103/30/8
f 103/31/9 104/32/9 102/33/9 101/34/9
f 101/35/10 102/36/10 98/37/10 97/38/10
f 99/27/11 103/39/11 101/40/11 97/41/11
f 104/42/12 100/43/12 98/44/12 102/45/12
f 105/23/7 106/24/7 108/25/7 107/26/7
f 107/27/8 108/28/8 112/29/8 111/30/8
f 111/31/9 112/32/9 110/33/9 109/34/9
f 109/35/10 110/36/10 106/37/10 105/38/10
f 107/27/11 111/39/11 109/40/11 105/41/11
f 112/42/12 108/43/12 106/44/12 110/45/12
f 113/23/7 114/24/7 116/25/7 115/26/7
f 115/27/8 116/28/8 120/29/8 119/30/8
f 119/31/9 120/32/9 118/33/9 117/34/9
f 117/35/10 118/36/10 114/37/10 113/38/10
f 115/27/11 119/39/11 117/40/11 113/41/11
f 120/42/12 116/43/12 114/44/12 118/45/12
f 121/23/7 122/24/7 124/25/7 123/26/7
f 123/27/8 124/28/8 128/29/8 127/30/8
f 127/31/9 128/32/9 126/33/9 125/34/9
f 125/35/10 126/36/10 122/37/10 121/38/10
f 123/27/11 127/39/11 125/40/11 121/41/11
f 128/42/12 124/43/12 122/44/12 126/45/12
f 129/23/7 130/24/7 132/25/7 131/26/7
f 131/27/8 132/28/8 136/29/8 135/30/8
f 135/31/9 136/32/9 134/33/9 133/34/9
f 133/35/10 134/36/10 130/37/10 129/38/10
f 131/27/11 135/39/11 133/40/11 129/41/11
f 136/42/12 132/43/12 130/44/12 134/45/12
o Cube.003
v -18.767103 -0.078615 1.563776
v -18.767103 0.078615 1.563776
v -18.767103 -0.078615 1.406545
v -18.767103 0.078615 1.406545
v 18.767103 -0.078615 1.563776
v 18.767103 0.078615 1.563776
v 18.767103 -0.078615 1.406545
v 18.767103 0.078615 1.406545
vn -1.0000 -0.0000 -0.0000
vn -0.0000 -0.0000 -1.0000
vn 1.0000 -0.0000 -0.0000
vn -0.0000 -0.0000 1.0000
vn -0.0000 -1.0000 -0.0000
vn -0.0000 1.0000 -0.0000
vt 0.375000 0.000000
vt 0.625000 0.000000
vt 0.625000 0.250000
vt 0.375000 0.250000
vt -6.581409 0.097707
vt -6.581409 0.164878
vt 7.581409 0.164878
vt 7.581391 0.097707
vt 0.375000 0.500000
vt 0.625000 0.500000
vt 0.625000 0.750000
vt 0.375000 0.750000
vt -8.334872 0.924777
vt -8.334872 0.825223
vt 9.334867 0.825223
vt 9.334867 0.924777
vt 0.125000 0.500000
vt 0.125000 0.750000
vt -7.210793 0.099520
vt 8.205216 0.099520
vt 8.205216 0.161429
vt -7.210793 0.161429
s 0
usemtl Material.001
f 137/46/13 138/47/13 140/48/13 139/49/13
f 139/50/14 140/51/14 144/52/14 143/53/14
f 143/54/15 144/55/15 142/56/15 141/57/15
f 141/58/16 142/59/16 138/60/16 137/61/16
f 139/62/17 143/54/17 141/57/17 137/63/17
f 144/64/18 140/65/18 138/66/18 142/67/18
